HIERARCHY
ROOT Hips
{
	OFFSET 0.00000 0.00000 0.00000
	CHANNELS 6 Xposition Yposition Zposition Zrotation Yrotation Xrotation 
	JOINT LHipJoint
	{
		OFFSET 0 0 0
		CHANNELS 3 Zrotation Yrotation Xrotation
		JOINT LeftUpLeg
		{
			OFFSET 1.54859 -1.61379 0.86856
			CHANNELS 3 Zrotation Yrotation Xrotation
			JOINT LeftLeg
			{
				OFFSET 2.25087 -6.18423 0.00000
				CHANNELS 3 Zrotation Yrotation Xrotation
				JOINT LeftFoot
				{
					OFFSET 2.40328 -6.60297 0.00000
					CHANNELS 3 Zrotation Yrotation Xrotation
					JOINT LeftToeBase
					{
						OFFSET 0.17435 -0.47901 2.02453
						CHANNELS 3 Zrotation Yrotation Xrotation
						End Site
						{
							OFFSET 0.00000 -0.00000 1.04844
						}
					}
				}
			}
		}
	}
	JOINT RHipJoint
	{
		OFFSET 0 0 0
		CHANNELS 3 Zrotation Yrotation Xrotation
		JOINT RightUpLeg
		{
			OFFSET -1.54669 -1.61379 0.86856
			CHANNELS 3 Zrotation Yrotation Xrotation
			JOINT RightLeg
			{
				OFFSET -2.28132 -6.26789 0.00000
				CHANNELS 3 Zrotation Yrotation Xrotation
				JOINT RightFoot
				{
					OFFSET -2.51636 -6.91365 0.00000
					CHANNELS 3 Zrotation Yrotation Xrotation
					JOINT RightToeBase
					{
						OFFSET -0.15124 -0.41552 2.21090
						CHANNELS 3 Zrotation Yrotation Xrotation
						End Site
						{
							OFFSET -0.00000 -0.00000 1.13399
						}
					}
				}
			}
		}
	}
	JOINT LowerBack
	{
		OFFSET 0 0 0
		CHANNELS 3 Zrotation Yrotation Xrotation
		JOINT Spine
		{
			OFFSET -0.04287 2.26161 -0.25690
			CHANNELS 3 Zrotation Yrotation Xrotation
			JOINT Spine1
			{
				OFFSET 0.02248 2.28395 -0.10140
				CHANNELS 3 Zrotation Yrotation Xrotation
				JOINT Neck
				{
					OFFSET 0 0 0
					CHANNELS 3 Zrotation Yrotation Xrotation
					JOINT Neck1
					{
						OFFSET -0.11644 1.38496 0.11345
						CHANNELS 3 Zrotation Yrotation Xrotation
						JOINT Head
						{
							OFFSET 0.29383 1.36600 0.06642
							CHANNELS 3 Zrotation Yrotation Xrotation
							End Site
							{
								OFFSET 0.11075 1.41395 -0.00294
							}
						}
					}
				}
				JOINT LeftShoulder
				{
					OFFSET 0 0 0
					CHANNELS 3 Zrotation Yrotation Xrotation
					JOINT LeftArm
					{
						OFFSET 3.51628 0.59542 -0.30346
						CHANNELS 3 Zrotation Yrotation Xrotation
						JOINT LeftForeArm
						{
							OFFSET 4.76405 -0.00000 0.00000
							CHANNELS 3 Zrotation Yrotation Xrotation
							JOINT LeftHand
							{
								OFFSET 3.13759 -0.00000 -0.00000
								CHANNELS 3 Zrotation Yrotation Xrotation
								JOINT LeftFingerBase
								{
									OFFSET 0 0 0
									CHANNELS 3 Zrotation Yrotation Xrotation
									JOINT LeftHandIndex1
									{
										OFFSET 0.73226 -0.00000 -0.00000
										CHANNELS 3 Zrotation Yrotation Xrotation
										End Site
										{
											OFFSET 0.59037 -0.00000 -0.00000
										}
									}
								}
								JOINT LThumb
								{
									OFFSET 0 0 0
									CHANNELS 3 Zrotation Yrotation Xrotation
									End Site
									{
										OFFSET 0.59938 -0.00000 0.59938
									}
								}
							}
						}
					}
				}
				JOINT RightShoulder
				{
					OFFSET 0 0 0
					CHANNELS 3 Zrotation Yrotation Xrotation
					JOINT RightArm
					{
						OFFSET -3.30990 0.84213 -0.36430
						CHANNELS 3 Zrotation Yrotation Xrotation
						JOINT RightForeArm
						{
							OFFSET -5.10161 -0.00000 -0.00000
							CHANNELS 3 Zrotation Yrotation Xrotation
							JOINT RightHand
							{
								OFFSET -3.23267 -0.00000 -0.00000
								CHANNELS 3 Zrotation Yrotation Xrotation
								JOINT RightFingerBase
								{
									OFFSET 0 0 0
									CHANNELS 3 Zrotation Yrotation Xrotation
									JOINT RightHandIndex1
									{
										OFFSET -0.70200 -0.00000 -0.00000
										CHANNELS 3 Zrotation Yrotation Xrotation
										End Site
										{
											OFFSET -0.56597 -0.00000 -0.00000
										}
									}
								}
								JOINT RThumb
								{
									OFFSET 0 0 0
									CHANNELS 3 Zrotation Yrotation Xrotation
									End Site
									{
										OFFSET -0.57461 -0.00000 0.57461
									}
								}
							}
						}
					}
				}
			}
		}
	}
}
MOTION
Frames: 14
Frame Time: 0.0555556
0.00 0.00 0.00 0 0 0 0 0 0 -21 0 0 0 0 0 0 0 0 0 0 0 0 0 0 21 0 0 0 0 0 0 0 0 0 0 0 0 0 0 0 0 0 0 0 0 0 0 -16 0 0 21 0 0 11 0 0 0 -8 0 0 0 0 0 0 0 0 0 0 0 0 0 0 0 0 0 0 0 0 8 0 0 0 0 0 0 0 0 0 0 0 0 0 0 0 0 0
0.00 0.00 0.00 -13.6004 78.5005 -11.8384 0.0000 0.0000 0.0000 8.1247 15.1554 -40.2609 8.8356 16.7007 55.5197 -0.0275 -6.2018 -3.5546 3.5428 -11.5258 -34.0745 0.0000 0.0000 0.0000 0.4062 -14.5864 -18.0187 -14.4483 -19.2444 73.5689 -0.0460 -6.8802 -10.8454 -1.8607 8.5697 -24.4582 -8.6336 1.7521 18.0047 -0.2684 1.2748 7.4894 4.3482 0.6576 -2.1358 -10.7571 1.9800 -10.8533 16.8211 4.0660 -2.0529 7.0881 2.5586 0.6635 -0.0000 -0.0000 0.0000 -58.0411 18.2751 20.3104 11.4370 -18.9550 -1.9155 -0.0000 0.0000 -12.4305 14.5471 29.5642 7.2961 -7.1250 0.0000 -0.0000 -18.8363 59.3504 -6.7501 -0.0000 -0.0000 0.0000 66.8543 2.7541 -35.4904 -31.5241 42.1645 -12.4202 0.0000 -0.0000 -42.8431 -0.3013 17.5870 -0.0910 7.1250 -0.0000 -0.0000 18.0772 -12.9903 14.2975
0.00 0.00 0.00 -15.1699 81.0992 -12.5695 0.0000 0.0000 0.0000 11.7596 10.6486 -32.9120 9.7879 17.2889 58.7771 0.6972 -12.0942 -16.0150 7.7608 -15.9405 -51.6966 0.0000 0.0000 0.0000 -1.7315 -16.2791 -27.6106 -20.7425 -19.9868 92.1713 -0.3724 6.2026 -11.0460 -2.8137 10.3871 -30.2397 -13.1285 2.3552 20.0691 -0.7240 1.1607 8.1476 6.3976 0.5659 -2.4057 -10.9289 -0.4625 -9.1000 18.9445 1.6938 -8.8210 7.7418 1.2522 -1.1972 -0.0000 -0.0000 0.0000 -54.6951 -4.1777 14.0519 12.7766 -20.9591 -2.3728 -0.0000 0.0000 -11.4065 21.6714 32.1921 11.9532 -7.1250 0.0000 -0.0000 -12.9165 63.6460 -5.8895 -0.0000 -0.0000 0.0000 73.9574 2.8728 -46.0193 -25.8121 37.0226 -8.7743 0.0000 -0.0000 -47.6294 -0.1441 15.1645 -0.0377 7.1250 -0.0000 -0.0000 18.3670 -15.2966 13.5986
0.00 0.00 0.00 3.7103 80.8713 11.1289 0.0000 0.0000 0.0000 8.4887 13.1090 -20.4485 7.8937 16.0405 52.1789 1.6970 -9.3821 -23.3606 8.5637 -16.5186 -54.5688 0.0000 0.0000 0.0000 5.0557 -13.0632 -59.4517 -22.5221 -19.8468 97.3923 -1.1583 3.2147 -19.5288 -0.2203 3.0216 -8.3389 -18.8699 1.5542 24.3035 -1.1624 -1.4224 9.6848 9.7613 -0.8501 -1.8317 -10.2352 -2.6295 -7.2610 23.9666 -0.3510 -13.0504 9.3791 -0.0444 -2.2688 0.0000 0.0000 0.0000 -61.3683 -43.2989 14.9912 19.3982 -29.9104 -5.2279 -0.0000 0.0000 -9.9457 20.5509 27.5977 9.8526 -7.1250 0.0000 -0.0000 -11.1580 58.8043 -3.7951 0.0000 0.0000 0.0000 79.3249 13.8871 -32.4201 -30.2962 41.1459 -11.6040 0.0000 -0.0000 -50.1304 -5.3702 15.3992 -1.4299 7.1250 -0.0000 -0.0000 14.9324 -14.8613 10.9889
0.00 0.00 0.00 17.5815 79.3252 31.0583 0.0000 0.0000 0.0000 3.5468 11.1781 -8.4819 4.5193 12.8211 38.7024 0.7503 -2.1362 -15.7784 7.8325 -15.9946 -51.9570 0.0000 0.0000 0.0000 3.2336 -7.3536 -74.7405 -17.2301 -19.8150 81.8773 -0.9766 -3.7085 -20.3563 -1.8365 8.5169 -24.2954 -15.5590 -0.9049 24.8095 0.8342 -3.9716 9.0936 10.8165 -2.0535 -2.2052 -10.2937 -2.4818 -8.3862 21.6753 -0.0403 -14.7166 8.6399 0.1483 -2.6733 0.0000 0.0000 0.0000 -79.0038 -52.2422 34.2193 32.6390 -43.0507 -13.1750 -0.0000 0.0000 -14.6850 26.2525 20.5905 9.8401 -7.1250 0.0000 -0.0000 -2.3712 52.6929 -0.4491 0.0000 0.0000 0.0000 77.2629 23.6042 -18.8441 -49.9644 52.9811 -26.1457 0.0000 -0.0000 -37.3819 -17.1874 23.8625 -7.1323 7.1250 -0.0000 -0.0000 7.4431 -5.3114 6.7809
0.00 0.00 0.00 23.2508 74.3868 39.6869 0.0000 0.0000 0.0000 -5.1235 5.2609 1.5149 3.8221 11.9199 35.4491 -0.3533 10.4675 -3.9288 2.6070 -10.0300 -29.0739 0.0000 0.0000 0.0000 1.6636 -8.2280 -78.2244 -12.4474 -18.5734 67.4001 -0.1197 -3.3187 -8.6216 -2.6402 10.0884 -29.2636 -6.6274 -2.5949 24.2136 2.9855 -3.9256 9.6046 8.0173 -1.9026 -2.0851 -9.4628 -2.0502 -9.0771 11.9644 -0.2704 -17.3207 5.3218 0.2402 -3.5586 -0.0000 0.0000 0.0000 -80.4723 -42.9289 50.5282 54.0957 -54.5195 -29.4782 -0.0000 0.0000 -5.6976 28.1832 17.9898 9.3965 -7.1250 0.0000 -0.0000 0.1360 50.2035 0.0174 -0.0000 0.0000 0.0000 72.2757 37.2111 1.6291 -75.1747 59.1530 -47.1975 0.0000 -0.0000 -0.6036 -29.4026 28.5624 -15.0793 7.1250 -0.0000 -0.0000 0.6981 2.0174 0.7223
0.00 0.00 0.00 19.0038 68.4199 35.7516 0.0000 0.0000 0.0000 -11.6071 7.9912 -3.6541 8.0748 16.1740 52.8317 -0.0027 1.2432 -1.3438 4.0132 -12.1779 -36.3642 0.0000 0.0000 0.0000 1.7667 -5.7347 -74.6221 -13.0958 -18.8165 69.4229 0.0455 -5.9104 -6.9891 -2.9813 10.6648 -31.1575 -2.4624 -0.8725 25.6491 4.5729 -0.6997 10.1156 6.6010 -0.2131 -2.8928 -10.6137 -2.3659 -8.7174 8.2373 -1.1112 -17.9732 4.3383 0.0233 -3.8172 -0.0000 -0.0000 0.0000 -79.8584 -29.7749 56.7905 55.1859 -54.8843 -30.3680 -0.0000 0.0000 -8.0912 26.5574 20.3134 9.8439 -7.1250 0.0000 -0.0000 -1.9896 52.4509 -0.3650 -0.0000 -0.0000 0.0000 62.2959 46.4638 12.4028 -55.1341 54.8674 -30.3257 0.0000 0.0000 24.2195 -46.5835 38.3333 -33.2449 7.1250 -0.0000 -0.0000 -5.8846 18.8041 -7.4988
0.00 0.00 0.00 14.2427 63.9836 31.0003 0.0000 0.0000 0.0000 -15.8251 10.6262 -14.5133 14.6971 19.3120 74.3227 0.0134 0.4396 -2.3964 4.3224 -12.5775 -37.8069 0.0000 0.0000 0.0000 -0.1616 0.3079 -64.5346 -13.1521 -18.8364 69.5974 -0.6729 -8.9697 -21.2494 -1.6530 8.1025 -23.0259 1.4147 1.0607 27.8452 3.6729 2.6643 11.2910 2.4114 1.5548 -2.8794 -9.6880 -3.5561 -8.6816 8.7954 -2.4570 -21.0666 4.4259 -0.6384 -4.6361 -0.0000 0.0000 0.0000 -74.6835 -19.0437 58.9655 45.1633 -50.8483 -22.3654 -0.0000 0.0000 -9.5731 23.4190 21.9133 9.1822 -7.1250 0.0000 -0.0000 -5.6681 53.5631 -1.1966 -0.0000 0.0000 0.0000 56.6879 53.6128 9.9173 -30.3345 41.1784 -11.6292 0.0000 0.0000 36.8359 -48.8553 41.2516 -37.0403 7.1250 -0.0000 -0.0000 -5.8623 22.9164 -7.7118
0.00 0.00 0.00 7.6509 61.9360 24.3589 0.0000 0.0000 0.0000 -17.7643 10.3506 -28.7564 21.7806 19.9238 95.2126 0.0419 -3.1103 -3.9560 3.2050 -11.0198 -32.3466 0.0000 0.0000 0.0000 0.0634 4.5819 -56.9127 -13.8848 -19.0787 71.8524 -1.3540 -9.3718 -27.1748 -2.2892 9.4442 -27.1950 6.4936 1.4843 30.7769 2.4681 4.6260 12.8213 -2.4205 2.7759 -2.0077 -8.6989 -3.8649 -9.4409 9.0456 -2.5428 -23.2927 4.3818 -0.6564 -5.2104 -0.0000 0.0000 0.0000 -70.1173 -9.1952 56.3336 31.4847 -42.1325 -12.3938 -0.0000 0.0000 -4.2409 25.0379 24.7397 11.0610 -7.1250 0.0000 -0.0000 -4.9505 56.8683 -1.4423 -0.0000 0.0000 0.0000 47.8876 63.6847 -13.1828 -12.5106 20.5659 -2.2785 0.0000 0.0000 52.0482 -37.4364 32.7306 -22.4863 7.1250 -0.0000 -0.0000 -2.8952 8.9651 -3.3150
0.00 0.00 0.00 5.7328 62.0763 22.3956 0.0000 0.0000 0.0000 -18.1583 9.7688 -32.3052 22.9939 19.7837 98.7841 0.0498 -3.2543 -4.2714 3.0302 -10.7438 -31.4205 0.0000 0.0000 0.0000 1.0179 4.6537 -53.7992 -13.6813 -19.0145 71.2287 -1.8236 -8.1156 -29.5181 -2.2889 9.4435 -27.1927 7.0296 1.5912 31.5932 3.0281 5.0275 13.0210 -2.2601 2.9804 -2.1086 -9.3339 -3.6939 -9.3092 9.0624 -2.2572 -23.4826 4.5021 -0.4555 -5.3098 0.0000 0.0000 0.0000 -70.8196 -6.3241 55.1054 28.3985 -39.4805 -10.3761 -0.0000 0.0000 -2.8884 25.3030 25.5327 11.5176 -7.1250 0.0000 -0.0000 -4.9699 57.7613 -1.5551 0.0000 0.0000 0.0000 43.3733 66.4968 -30.4755 -8.9604 15.0972 -1.1898 0.0000 0.0000 59.2590 -31.7599 27.0153 -15.7057 7.1250 -0.0000 -0.0000 -0.9560 0.9656 -0.9721
0.00 0.00 0.00 3.5620 62.4248 20.3744 0.0000 0.0000 0.0000 -18.4379 9.0638 -36.2725 24.0754 19.5970 101.9931 0.0664 -3.2480 -4.7877 2.8709 -10.4831 -30.5559 0.0000 0.0000 0.0000 2.4380 4.1895 -50.8153 -13.3028 -18.8888 70.0635 -1.7828 -10.0296 -30.5376 -3.2464 11.0836 -32.5625 7.3826 1.5435 32.1353 3.7371 5.1842 13.1614 -1.7463 3.0506 -2.2093 -10.8139 -3.4978 -9.0395 9.7586 -1.8166 -23.5732 4.9902 -0.1539 -5.3880 -0.0000 -0.0000 0.0000 -71.8893 -2.9393 53.3495 26.0593 -37.2672 -8.9235 -0.0000 0.0000 -2.5885 26.4108 27.1150 12.7544 -7.1250 0.0000 -0.0000 -4.3881 59.6842 -1.5749 -0.0000 -0.0000 0.0000 35.3970 70.0951 -72.1816 -5.6725 9.7149 -0.4825 0.0000 0.0000 82.5847 -26.8900 24.5764 -11.9097 7.1250 -0.0000 -0.0000 1.5576 -2.8405 1.4790
0.00 0.00 0.00 -2.5450 64.2456 15.8556 0.0000 0.0000 0.0000 -20.3127 5.1055 -49.6811 26.1217 19.0767 108.1676 0.1863 -2.0800 -7.6956 2.3439 -9.5484 -27.5263 0.0000 0.0000 0.0000 6.0478 1.7359 -43.3877 -11.9691 -18.3775 65.8907 -1.7422 -12.8537 -32.3960 -4.7943 13.1483 -39.9262 9.1880 1.9233 31.6030 4.6135 6.1801 13.3285 -2.0320 3.6076 -1.5941 -9.7833 -3.2186 -9.2723 10.1508 -1.4008 -22.9062 4.9169 -0.0565 -5.1758 -0.0000 -0.0000 0.0000 -70.7587 7.1937 52.5639 23.9818 -35.1450 -7.6961 -0.0000 0.0000 -11.2800 26.0140 30.6837 13.9846 -7.1250 0.0000 -0.0000 -6.7037 63.2942 -2.9827 -0.0000 -0.0000 0.0000 32.4142 68.2797 -97.4849 -7.3604 12.5109 -0.8079 0.0000 0.0000 56.8384 -25.0395 28.4727 -12.5553 7.1250 -0.0000 -0.0000 3.2239 0.8815 3.2783
0.00 0.00 0.00 -7.3064 66.5649 12.9248 0.0000 0.0000 0.0000 -23.4246 -1.4323 -61.2196 25.5249 19.2518 106.3498 0.2735 -2.2006 -9.3607 2.5926 -10.0043 -28.9907 0.0000 0.0000 0.0000 8.6858 -2.7284 -35.6833 -10.1109 -17.4717 59.8582 -2.2253 -10.5965 -33.5758 -5.2478 13.6576 -41.8827 9.8782 2.1965 30.2561 4.6110 6.5567 12.9432 -2.4490 3.8125 -1.3160 -7.9252 -3.1500 -8.4197 10.8303 -1.2869 -23.2883 4.8355 -0.2079 -5.4378 0.0000 -0.0000 0.0000 -67.9450 18.0758 56.9135 24.3166 -35.4972 -7.8896 -0.0000 0.0000 -18.5488 24.3675 32.2097 13.5729 -7.1250 0.0000 -0.0000 -9.7207 64.3960 -4.5862 0.0000 -0.0000 0.0000 44.2621 60.9521 -53.8867 -12.3595 20.3415 -2.2257 0.0000 0.0000 5.9729 -19.1654 31.4598 -10.2812 7.1250 -0.0000 -0.0000 7.0238 2.7331 7.4056
0.00 0.00 0.00 -22.3178 68.2070 -0.0630 0.0000 0.0000 0.0000 -26.3976 -6.9641 -73.0432 17.9725 19.9012 84.0627 0.0720 -6.9708 -6.4486 1.4597 -7.6362 -21.6143 0.0000 0.0000 0.0000 13.3823 -13.2106 -16.4987 -4.9942 -13.3772 40.7976 -1.0703 -2.0495 -20.3826 -6.2994 14.7124 -46.1719 9.5270 2.2865 28.7860 4.3250 6.3987 12.9858 -2.4129 3.7684 -0.6309 -5.8322 -2.3410 -7.7578 11.2895 -0.1646 -23.1178 4.6061 0.1391 -5.6050 0.0000 0.0000 0.0000 -71.0961 32.6681 60.4642 24.6032 -35.7957 -8.0567 -0.0000 0.0000 -18.4419 11.6307 28.9879 5.6964 -7.1250 0.0000 -0.0000 -21.4508 58.1618 -7.1203 0.0000 0.0000 0.0000 53.9178 46.3832 -16.0153 -21.3231 32.2035 -6.2212 0.0000 -0.0000 -2.5464 -34.3922 35.6996 -21.7737 7.1250 -0.0000 -0.0000 -0.5142 11.0676 -0.6034
